<svg width="231" height="231" viewBox="0 0 231 231" fill="none" xmlns="http://www.w3.org/2000/svg">
<g clip-path="url(#clip0_205_45)">
<path d="M230.806 57.006C232.212 44.848 182.798 10.875 182.298 10.539C172.265 3.761 162.124 6.751 152.159 19.428C145.591 27.793 74.735 106.623 73.753 108.235C53.429 135.31 10.556 161.541 1.93303 180.85C-1.55897 188.681 0.454028 193.746 1.96603 196.069C4.07103 199.346 7.68503 201.284 11.624 201.284C16.905 201.284 22.667 197.554 23.659 189.191C23.913 187.056 62.827 175.155 82.71 133.92C82.71 133.92 86.167 126.071 89.376 128.773C100.708 140.218 114.331 153.933 119.579 158.881C119.607 163.43 119.257 167.973 118.675 172.508C117.693 180.189 116.066 187.851 114.57 195.493C113.799 199.01 112.925 202.498 111.965 205.946C110.36 213.432 112.598 223.192 118.762 223.778C126.325 224.498 128.17 217.023 129.086 210.499C129.545 207.236 129.387 203.358 128.879 199.135C128.352 195.57 127.684 192.059 127.014 188.624C125.018 179.851 123.231 171.242 124.698 161.673C125.205 161.753 125.725 161.798 126.272 161.798C127.973 161.798 129.856 161.41 131.924 160.644C133.666 159.998 135.637 159.01 137.778 157.749C139.219 165.437 133.84 173.835 140.705 179.285C144.733 182.639 151.071 181.912 154.612 178.312C156.627 175.895 156.787 172.754 156.088 169.99C153.885 163.79 144.996 161.024 147.223 154.421C147.494 153.586 147.975 152.049 148.598 150.256C150.403 148.859 152.268 147.352 154.18 145.758C154.237 149.649 152.264 153.665 155.686 156.382C157.959 158.275 161.535 157.863 163.53 155.834C164.668 154.471 164.758 152.699 164.362 151.14C163.119 147.641 158.106 146.083 159.362 142.359C159.466 142.036 159.631 141.52 159.836 140.902C162.453 138.593 165.131 136.153 167.842 133.61C166.698 138.536 165.528 143.214 169.602 147.174C173.276 150.915 179.653 150.824 183.537 147.596C185.782 145.393 186.256 142.284 185.838 139.462C184.278 133.133 175.866 129.503 178.498 123.265C204.345 97.37 229.743 66.265 230.806 57.006ZM34.218 170.341C32.261 172.038 29.3 171.827 27.603 169.87C25.906 167.913 26.117 164.951 28.076 163.256C30.033 161.56 32.992 161.771 34.689 163.727C36.386 165.684 36.173 168.645 34.218 170.341ZM44.847 161.128C42.888 162.824 39.929 162.612 38.234 160.656C36.537 158.699 36.748 155.736 38.705 154.042C40.66 152.346 43.621 152.557 45.318 154.514C47.015 156.47 46.804 159.432 44.847 161.128ZM55.476 151.915C53.519 153.61 50.558 153.399 48.861 151.442C47.164 149.485 47.377 146.525 49.334 144.829C51.289 143.133 54.252 143.344 55.947 145.301C57.644 147.256 57.433 150.218 55.476 151.915ZM174.027 22.089C178.947 22.089 182.935 26.078 182.935 30.998C182.935 35.918 178.947 39.907 174.027 39.907C169.107 39.907 165.12 35.918 165.12 30.998C165.12 26.078 169.107 22.089 174.027 22.089Z" fill="#9e2a2b"/>
<line x1="129.01" y1="161.796" x2="137.01" y2="83.796" stroke="white" stroke-width="4"/>
<line x1="136.399" y1="83.8554" x2="230.819" y2="54.0925" stroke="white" stroke-width="4"/>
</g>
</svg>
